name rise36.2859peak64.2979fall75.1499.mot
datacolumns 19
datarows 15
range 13.68996000000000 13.71328400000000
endheader
time	ground_force1_vx	ground_force1_vy	ground_force1_vz	ground_force1_px	ground_force1_py	ground_force1_pz	ground_force2_vx	ground_force2_vy	ground_force2_vz	ground_force2_px	ground_force2_py	ground_force2_pz	ground_torque1_x	ground_torque1_y	ground_torque1_z	ground_torque2_x	ground_torque2_y	ground_torque2_z	
13.68996000000000	57.73726300000000	746.05427099999997	61.10131600000000	0.42134400000000	0.00000000000000	0.11171100000000	0.00000000000000	0.00000000000000	0.00000000000000	0.00000000000000	0.00000000000000	0.00000000000000	0.00000000000000	38.02474500000000	0.00000000000000	0.00000000000000	0.00000000000000	0.00000000000000	
13.69161600000000	56.96615400000000	748.82666500000005	61.27802500000000	0.41965900000000	0.00000000000000	0.11179500000000	0.00000000000000	0.00000000000000	0.00000000000000	0.00000000000000	0.00000000000000	0.00000000000000	0.00000000000000	38.15035500000000	0.00000000000000	0.00000000000000	0.00000000000000	0.00000000000000	
13.69328500000000	56.19748400000000	751.50117899999998	61.44961300000000	0.41797900000000	0.00000000000000	0.11188000000000	0.00000000000000	0.00000000000000	0.00000000000000	0.00000000000000	0.00000000000000	0.00000000000000	0.00000000000000	38.27140500000000	0.00000000000000	0.00000000000000	0.00000000000000	0.00000000000000	
13.69494500000000	55.43199400000000	754.07511899999997	61.61587600000000	0.41630600000000	0.00000000000000	0.11196500000000	0.00000000000000	0.00000000000000	0.00000000000000	0.00000000000000	0.00000000000000	0.00000000000000	0.00000000000000	38.38778600000000	0.00000000000000	0.00000000000000	0.00000000000000	0.00000000000000	
13.69661800000000	54.67034300000000	756.54583000000002	61.77656100000000	0.41464300000000	0.00000000000000	0.11205100000000	0.00000000000000	0.00000000000000	0.00000000000000	0.00000000000000	0.00000000000000	0.00000000000000	0.00000000000000	38.49935400000000	0.00000000000000	0.00000000000000	0.00000000000000	0.00000000000000	
13.69828200000000	53.91312000000000	758.91071999999997	61.93136300000000	0.41299000000000	0.00000000000000	0.11213700000000	0.00000000000000	0.00000000000000	0.00000000000000	0.00000000000000	0.00000000000000	0.00000000000000	0.00000000000000	38.60593100000000	0.00000000000000	0.00000000000000	0.00000000000000	0.00000000000000	
13.69995100000000	53.16083700000000	761.16727700000001	62.07993700000000	0.41134900000000	0.00000000000000	0.11222400000000	0.00000000000000	0.00000000000000	0.00000000000000	0.00000000000000	0.00000000000000	0.00000000000000	0.00000000000000	38.70730800000000	0.00000000000000	0.00000000000000	0.00000000000000	0.00000000000000	
13.70161400000000	52.41393800000000	763.31308700000000	62.22190200000000	0.40972100000000	0.00000000000000	0.11231100000000	0.00000000000000	0.00000000000000	0.00000000000000	0.00000000000000	0.00000000000000	0.00000000000000	0.00000000000000	38.80325300000000	0.00000000000000	0.00000000000000	0.00000000000000	0.00000000000000	
13.70328600000000	51.67280100000000	765.34585300000003	62.35684000000000	0.40810700000000	0.00000000000000	0.11239800000000	0.00000000000000	0.00000000000000	0.00000000000000	0.00000000000000	0.00000000000000	0.00000000000000	0.00000000000000	38.89351200000000	0.00000000000000	0.00000000000000	0.00000000000000	0.00000000000000	
13.70495200000000	50.93773600000000	767.26341400000001	62.48431200000000	0.40650900000000	0.00000000000000	0.11248500000000	0.00000000000000	0.00000000000000	0.00000000000000	0.00000000000000	0.00000000000000	0.00000000000000	0.00000000000000	38.97781100000000	0.00000000000000	0.00000000000000	0.00000000000000	0.00000000000000	
13.70661800000000	50.20899400000000	769.06376000000000	62.60385300000000	0.40492700000000	0.00000000000000	0.11257100000000	0.00000000000000	0.00000000000000	0.00000000000000	0.00000000000000	0.00000000000000	0.00000000000000	0.00000000000000	39.05586300000000	0.00000000000000	0.00000000000000	0.00000000000000	0.00000000000000	
13.70828300000000	49.48677000000000	770.74504800000000	62.71498500000000	0.40336300000000	0.00000000000000	0.11265800000000	0.00000000000000	0.00000000000000	0.00000000000000	0.00000000000000	0.00000000000000	0.00000000000000	0.00000000000000	39.12737400000000	0.00000000000000	0.00000000000000	0.00000000000000	0.00000000000000	
13.70994900000000	48.77120100000000	772.30561599999999	62.81721900000000	0.40181700000000	0.00000000000000	0.11274400000000	0.00000000000000	0.00000000000000	0.00000000000000	0.00000000000000	0.00000000000000	0.00000000000000	0.00000000000000	39.19203900000000	0.00000000000000	0.00000000000000	0.00000000000000	0.00000000000000	
13.71162300000000	48.06237700000000	773.74400000000003	62.91006300000000	0.40028900000000	0.00000000000000	0.11282900000000	0.00000000000000	0.00000000000000	0.00000000000000	0.00000000000000	0.00000000000000	0.00000000000000	0.00000000000000	39.24955500000000	0.00000000000000	0.00000000000000	0.00000000000000	0.00000000000000	
13.71328400000000	47.36034200000000	775.05894200000000	62.99302600000000	0.39878100000000	0.00000000000000	0.11291400000000	0.00000000000000	0.00000000000000	0.00000000000000	0.00000000000000	0.00000000000000	0.00000000000000	0.00000000000000	39.29962000000000	0.00000000000000	0.00000000000000	0.00000000000000	0.00000000000000	
